<!-- main-node.svg -->
<svg width="200" height="200" xmlns="http://www.w3.org/2000/svg"
     xmlns:xlink="http://www.w3.org/1999/xlink">

    <!-- Rectángulo superior -->
    <rect width="200" height="150" fill="#2A82DA"/>

    <!-- Línea naranja -->
    <rect y="118" width="200" height="4" fill="#ffa500"/>

    <!-- Rectángulo inferior -->
    <rect y="122" width="200" height="78" fill="#333"/>

    <!-- SVG Icon centrado (ruta correcta claramente indicada) -->
    <svg id="Logotype_x5F_Victron" x="60" y="20" width="80" height="80" version="1.1" viewBox="0 0 420 400" xmlns="http://www.w3.org/2000/svg">
        <style type="text/css">.st0{fill:#FFFFFF;}</style>
        <path class="st0" d="m90.264 3.7333c-18.2-5.6-38.3-1.4-52.6 11.2 0 0-31.8 21.5-37.6 110.6 0 0-1.6 15 11.2 17.3 0 0 13.3 2.6 15-8.7 1.6-11.2 1.6-67.8 26.4-96.8 2.3-3 5.6-5.4 9.1-6.5 5.1-4 9.8-8.7 13.3-14.3 4-5.4 9.1-9.8 15-12.9"/>
        <path class="st0" d="m137.46 1.4333c-17.1-4-35.1 0.5-48.4 11.9 0 0-29.5 18.2-37.2 90.7-1.2 8.9-1.6 18-1.2 26.9 0.7 6.1 5.6 11 11.9 11.2 0 0 13.3 1.2 14-11.2l1.2-17.3s2.1-48.4 21.5-72.5l4.9 3.7c6.4-17.5 18.1-32.7 33.3-43.4z"/>
        <path class="st0" d="m185.36 1.4333c-19.6-3.7-40 2.8-53.8 17.3 0 0-22.7 19.9-29 69.9 0 0-2.6 26.9-3.3 39.8 0 7 4.9 12.9 11.9 14 7 0.5 12.9-4.9 13.3-11.7v-0.7s1.2-60.8 23.6-88.6l5.4 3.3c6.3-16.8 17.3-31.8 31.8-42.6 0.1 0 0.1-0.7 0.1-0.7z"/>
        <path class="st0" d="m220.96 0.93333c-20.8 0.7-40 12.4-50 30.6 0 0-21.5 31.1-21.5 94.5 0 0-1.2 15 10.8 16.6 7.2 0.5 13.3-4.9 14-11.9v-0.9-2.1s0.5-62.7 24.6-88.2c0 0 21.5 25.3 23.1 85.3 0 0 0.5 41.4 8.7 63.8 4.9-19.9 7.5-40.2 8-60.8 0-4.2 1.6-8.2 4.9-10.8 0 0 3.7-1.6 2.6-8 0 0-5.4-52.1-22.7-82.3 0 0 37.2-2.6 44 71.6 0 6.3 2.1 12.6 5.8 17.8 3.3 2.6 4.9 6.5 4.9 10.8 0.7 14.7 0 29.5-2.1 44-0.5 6.1 0.5 12.2 2.6 17.8 5.1-16.1 7.7-33 7-50 0 0-1.2-19.9 8.7-26.9 0 0-0.5-56.4-23.1-87-12-15.5-30.7-24.6-50.3-23.9z"/>
        <path class="st0" d="m331.56 255.13c18.2 5.8 38.3 1.6 52.6-11.2 0 0 31.8-21.5 37.6-110.6 0 0 1.6-15-11.2-17.3 0 0-13.3-2.6-15 8.7-1.6 11.2-1.6 67.8-26.4 96.8-2.3 3-5.6 5.4-9.1 6.5-5.4 4-9.8 8.9-13.3 14.5-4.2 4.9-9.4 9.3-15.2 12.6"/>
        <path class="st0" d="m283.56 257.23c17.1 4 35.1-0.5 48.4-11.9 0 0 29.5-18.2 37.2-90.7 1.2-8.9 1.6-18 1.2-26.9-0.5-6.3-5.6-11.2-11.9-11.2 0 0-13.3-1.2-14 11.2l-1.2 17.3s-2.1 48.4-21.5 72.5l-4.9-3.7c-5.9 17.7-17.6 32.9-33.3 43.4z"/>
        <path class="st0" d="m236.36 257.23c19.6 3.7 40-2.8 53.8-17.3 0 0 22.7-19.9 29-69.9 0 0 2.6-26.9 3.3-39.8 0-7-4.9-12.9-11.9-14-7-0.5-12.9 4.9-13.3 11.7v1.4s-0.5 60.8-23.6 88.6l-5.4-3.3c-6.4 16.9-17.4 31.6-31.9 42.6z"/>
        <path class="st0" d="m200.36 257.93c20.8-0.7 40-12.4 50-30.6 0 0 21.5-31.1 21.5-94.5 0 0 1.2-15-10.8-16.6-7.2-0.5-13.3 4.9-14 11.9v0.9 2.1s-0.5 62.9-24.8 88.2c0 0-21.5-25.3-23.1-85.3 0 0-0.5-41.4-8.7-63.8-4.9 19.9-7.5 40.2-8.2 60.8 0 4.2-1.6 8.2-4.9 10.8 0 0-3.7 1.6-2.6 8 0 0 5.4 52.1 22.7 82.3 0 0-37.2 2.6-44-71.6 0-6.3-2.1-12.6-5.8-17.8-3.3-2.6-4.9-6.5-4.9-10.8-0.7-14.7 0-29.5 2.1-44 0.2-6.1-0.7-11.9-2.6-17.8-5.4 16.1-7.5 33-6.5 50 0 0 1.2 19.9-8.7 26.9 0 0 1.2 56.4 23.1 87 11.8 15.5 30.6 24.4 50.2 23.9z"/>
    </svg>


</svg>
